<svg xmlns="http://www.w3.org/2000/svg" width="52" height="52" viewBox="0 0 52 52">
  <metadata><?xpacket begin="﻿" id="W5M0MpCehiHzreSzNTczkc9d"?>
<x:xmpmeta xmlns:x="adobe:ns:meta/" x:xmptk="Adobe XMP Core 5.6-c138 79.159824, 2016/09/14-01:09:01        ">
   <rdf:RDF xmlns:rdf="http://www.w3.org/1999/02/22-rdf-syntax-ns#">
      <rdf:Description rdf:about=""/>
   </rdf:RDF>
</x:xmpmeta>
                                                                                                    
                                                                                                    
                                                                                                    
                                                                                                    
                                                                                                    
                                                                                                    
                                                                                                    
                                                                                                    
                                                                                                    
                                                                                                    
                                                                                                    
                                                                                                    
                                                                                                    
                                                                                                    
                                                                                                    
                                                                                                    
                                                                                                    
                                                                                                    
                                                                                                    
                                                                                                    
                           
<?xpacket end="w"?></metadata>
<defs>
    <style>
      .cls-1 {
        fill: #fff;
        fill-rule: evenodd;
      }
    </style>
  </defs>
  <path id="behance-icon" class="cls-1" d="M139,3005a26,26,0,1,0,26,26A26,26,0,0,0,139,3005Zm5.064,16.76h8.482v2.11h-8.482v-2.11Zm-8.081,18.69a9.239,9.239,0,0,1-4.009.76h-9.9v-20.8h10.887c1.351,0,5.522.8,5.545,4.81a4.7,4.7,0,0,1-2.864,4.64s3.459,1.03,3.734,4.09S139.1,3038.91,135.983,3040.45Zm19.894-5.74h-10.91a3.535,3.535,0,0,0,3.651,3.84,3.832,3.832,0,0,0,3.374-2.02h3.571c-0.98,3.57-3.859,5.06-7.258,5.06a7.647,7.647,0,0,1-7.617-7.97,7.625,7.625,0,1,1,15.234,0C155.922,3034,155.907,3034.36,155.877,3034.71Zm-21.772-8.33c0-2.45-2.764-2.39-2.764-2.39h-4.685v4.77h4.685S134.1,3028.83,134.1,3026.38Zm14.217,2.43a3.452,3.452,0,0,0-3.355,3.24h6.71A3.452,3.452,0,0,0,148.322,3028.81Zm-16.7,3.18h-4.97v5.69h4.97s3.3,0.07,3.3-2.85S131.626,3031.99,131.626,3031.99Z" transform="translate(-113 -3005)"/>
</svg>
